<svg width="29" height="21" viewBox="0 0 29 21" fill="none" xmlns="http://www.w3.org/2000/svg">
<path d="M3.48 21H2.3925L1.6675 18H0V9.975C0 9.325 0.205417 8.775 0.61625 8.325C1.02708 7.875 1.54667 7.65 2.175 7.65H3.1175V2.25C3.1175 1.625 3.32896 1.09375 3.75188 0.65625C4.17479 0.21875 4.68833 0 5.2925 0H23.6713C24.2754 0 24.789 0.21875 25.2119 0.65625C25.6348 1.09375 25.8463 1.625 25.8463 2.25V7.65H26.825C27.4292 7.65 27.9427 7.86875 28.3656 8.30625C28.7885 8.74375 29 9.275 29 9.9V18H27.3325L26.6075 21H25.52L24.795 18H4.24125L3.48 21ZM15.5875 7.65H23.6713V2.25H15.5875V7.65ZM5.2925 7.65H13.4125V2.25H5.2925V7.65ZM2.175 15.75H26.825V9.9H2.175V15.75ZM26.825 15.75H2.175H26.825Z" fill="#919191"/>
</svg>
