<svg width="24" height="27" viewBox="0 0 24 27" fill="none" xmlns="http://www.w3.org/2000/svg">
<path d="M3.96639 27L5.71429 22.9837C5.33333 22.7137 4.9916 22.4494 4.68908 22.1906C4.38656 21.9319 4.07843 21.645 3.76471 21.33C3.58543 21.42 3.38936 21.4875 3.17647 21.5325C2.96359 21.5775 2.76751 21.6 2.58824 21.6C1.87115 21.6 1.2605 21.3469 0.756303 20.8406C0.252101 20.3344 0 19.7213 0 19.0013C0 18.5513 0.106443 18.1294 0.319328 17.7356C0.532213 17.3419 0.795518 17.055 1.10924 16.875C0.952381 16.3125 0.829132 15.75 0.739496 15.1875C0.64986 14.625 0.605042 14.0513 0.605042 13.4663C0.605042 12.8588 0.644258 12.2794 0.722689 11.7281C0.80112 11.1769 0.929972 10.62 1.10924 10.0575C0.795518 9.8325 0.532213 9.53438 0.319328 9.16313C0.106443 8.79188 0 8.38125 0 7.93125C0 7.21125 0.252101 6.59812 0.756303 6.09187C1.2605 5.58562 1.87115 5.3325 2.58824 5.3325C2.76751 5.3325 2.95798 5.355 3.15966 5.4C3.36135 5.445 3.55182 5.5125 3.73109 5.6025C4.51541 4.7925 5.37255 4.1175 6.30252 3.5775C7.23249 3.0375 8.26891 2.62125 9.41177 2.32875C9.52381 1.60875 9.82073 1.04063 10.3025 0.624375C10.7843 0.208125 11.3501 0 12 0C12.6499 0 13.2213 0.21375 13.7143 0.64125C14.2073 1.06875 14.4986 1.63125 14.5882 2.32875C15.7311 2.62125 16.8067 3.00938 17.8151 3.49313C18.8235 3.97688 19.7087 4.64625 20.4706 5.50125C20.6275 5.45625 20.7843 5.41688 20.9412 5.38313C21.098 5.34938 21.2549 5.3325 21.4118 5.3325C22.1289 5.3325 22.7395 5.58562 23.2437 6.09187C23.7479 6.59812 24 7.21125 24 7.93125C24 8.42625 23.8936 8.85375 23.6807 9.21375C23.4678 9.57375 23.2045 9.855 22.8908 10.0575C23.07 10.6425 23.1989 11.205 23.2773 11.745C23.3557 12.285 23.395 12.8588 23.395 13.4663C23.395 14.0513 23.3557 14.6194 23.2773 15.1706C23.1989 15.7219 23.07 16.2788 22.8908 16.8413C23.2717 17.0888 23.5518 17.415 23.7311 17.82C23.9104 18.225 24 18.6188 24 19.0013C24 19.7213 23.7479 20.3344 23.2437 20.8406C22.7395 21.3469 22.1289 21.6 21.4118 21.6C21.2325 21.6 21.0364 21.5775 20.8235 21.5325C20.6106 21.4875 20.4258 21.42 20.2689 21.33C19.9776 21.645 19.6751 21.9375 19.3613 22.2075C19.0476 22.4775 18.7115 22.7362 18.3529 22.9837L20.0672 27H18.1513L16.7395 23.895C16.3585 24.03 16 24.1538 15.6639 24.2663C15.3277 24.3788 14.9692 24.4913 14.5882 24.6038C14.4762 25.3463 14.1793 25.92 13.6975 26.325C13.2157 26.73 12.6499 26.9325 12 26.9325C11.3501 26.9325 10.7843 26.73 10.3025 26.325C9.82073 25.92 9.52381 25.3463 9.41177 24.6038C9.03081 24.4913 8.66667 24.3788 8.31933 24.2663C7.97199 24.1538 7.64146 24.0187 7.32773 23.8612L5.84874 27H3.96639ZM6.45378 21.2625L8.84034 16.0313C8.52661 15.6713 8.29132 15.2831 8.13445 14.8669C7.97759 14.4506 7.89916 13.995 7.89916 13.5C7.89916 12.375 8.31933 11.4075 9.15966 10.5975C10 9.7875 10.9804 9.3825 12.1008 9.3825C13.2213 9.3825 14.1681 9.7875 14.9412 10.5975C15.7143 11.4075 16.1008 12.375 16.1008 13.5C16.1008 13.995 16.028 14.4506 15.8824 14.8669C15.7367 15.2831 15.4958 15.6713 15.1597 16.0313L17.5462 21.2625C17.7927 21.0825 18.0448 20.8856 18.3025 20.6719C18.5602 20.4581 18.8011 20.2275 19.0252 19.98C18.9804 19.845 18.9356 19.6931 18.8908 19.5244C18.8459 19.3556 18.8235 19.1813 18.8235 19.0013C18.8235 18.3938 19.0252 17.8425 19.4286 17.3475C19.8319 16.8525 20.3922 16.5375 21.1092 16.4025C21.2661 15.9525 21.3838 15.48 21.4622 14.985C21.5406 14.49 21.5798 13.9838 21.5798 13.4663C21.5798 12.9263 21.5406 12.4144 21.4622 11.9306C21.3838 11.4469 21.2773 10.98 21.1429 10.53C20.4706 10.44 19.916 10.1475 19.479 9.6525C19.042 9.1575 18.8235 8.58375 18.8235 7.93125C18.8235 7.72875 18.8403 7.54875 18.874 7.39125C18.9076 7.23375 18.958 7.065 19.0252 6.885C18.3081 6.1875 17.5574 5.61375 16.7731 5.16375C15.9888 4.71375 15.1036 4.35375 14.1176 4.08375C13.9384 4.37625 13.6639 4.635 13.2941 4.86C12.9244 5.085 12.493 5.1975 12 5.1975C11.507 5.1975 11.0812 5.085 10.7227 4.86C10.3641 4.635 10.084 4.37625 9.88235 4.08375C8.89636 4.35375 7.9944 4.71375 7.17647 5.16375C6.35854 5.61375 5.62465 6.21 4.97479 6.9525C5.06443 7.1325 5.12045 7.29562 5.14286 7.44187C5.16527 7.58812 5.17647 7.75125 5.17647 7.93125C5.17647 8.65125 4.94678 9.24188 4.4874 9.70313C4.02801 10.1644 3.4958 10.44 2.89076 10.53C2.73389 10.98 2.61625 11.4469 2.53782 11.9306C2.45938 12.4144 2.42017 12.9263 2.42017 13.4663C2.42017 13.9838 2.45938 14.49 2.53782 14.985C2.61625 15.48 2.73389 15.9525 2.89076 16.4025C3.60784 16.5375 4.16807 16.8525 4.57143 17.3475C4.97479 17.8425 5.17647 18.3938 5.17647 19.0013C5.17647 19.2038 5.15966 19.3838 5.12605 19.5413C5.09244 19.6988 5.05322 19.8337 5.0084 19.9462C5.23249 20.1937 5.46219 20.4244 5.69748 20.6381C5.93277 20.8519 6.18487 21.06 6.45378 21.2625ZM7.96639 22.1737C8.2353 22.2862 8.53221 22.4044 8.85714 22.5281C9.18207 22.6519 9.52381 22.7587 9.88235 22.8487C10.1289 22.5337 10.4202 22.2694 10.7563 22.0556C11.0924 21.8419 11.507 21.735 12 21.735C12.493 21.735 12.9244 21.8419 13.2941 22.0556C13.6639 22.2694 13.9384 22.5337 14.1176 22.8487C14.4986 22.7587 14.8403 22.6575 15.1429 22.545C15.4454 22.4325 15.7199 22.32 15.9664 22.2075L13.7815 17.1113C13.5126 17.2913 13.2213 17.4206 12.9076 17.4994C12.5938 17.5781 12.2801 17.6175 11.9664 17.6175C11.6527 17.6175 11.3389 17.5725 11.0252 17.4825C10.7115 17.3925 10.4202 17.2575 10.1513 17.0775L7.96639 22.1737ZM12 15.5925C12.5826 15.5925 13.0756 15.39 13.479 14.985C13.8824 14.58 14.084 14.085 14.084 13.5C14.084 12.915 13.8824 12.42 13.479 12.015C13.0756 11.61 12.5826 11.4075 12 11.4075C11.4174 11.4075 10.9244 11.61 10.521 12.015C10.1176 12.42 9.91597 12.915 9.91597 13.5C9.91597 14.085 10.1176 14.58 10.521 14.985C10.9244 15.39 11.4174 15.5925 12 15.5925Z" fill="#919191"/>
</svg>
