<svg width="27" height="27" viewBox="0 0 27 27" fill="none" xmlns="http://www.w3.org/2000/svg">
<path d="M12.5535 27C10.8044 26.9099 9.16605 26.4931 7.63838 25.7497C6.1107 25.0063 4.78229 24.0319 3.65314 22.8267C2.52399 21.6214 1.63284 20.219 0.979705 18.6195C0.326568 17.02 0 15.3191 0 13.5169C0 11.6471 0.348708 9.88986 1.04613 8.24531C1.74354 6.60075 2.69004 5.17021 3.88561 3.95369C5.08118 2.73717 6.48709 1.77409 8.10332 1.06446C9.71956 0.354818 11.4465 0 13.2841 0C16.583 0 19.4502 1.05882 21.8856 3.17647C24.321 5.29412 25.8155 7.95244 26.369 11.1514H24.3432C23.9668 9.25907 23.1808 7.56946 21.9852 6.0826C20.7897 4.59574 19.2952 3.4806 17.5018 2.73717V3.34543C17.5018 4.13392 17.2362 4.82103 16.7048 5.40676C16.1734 5.99249 15.5203 6.28536 14.7454 6.28536H11.8561V9.22528C11.8561 9.60826 11.7066 9.92365 11.4077 10.1715C11.1089 10.4193 10.7712 10.5432 10.3948 10.5432H7.63838V13.5169H11.2915V17.7409H9.06642L2.29151 10.8473C2.18081 11.2979 2.10332 11.7428 2.05904 12.1821C2.01476 12.6214 1.99262 13.0663 1.99262 13.5169C1.99262 16.5582 3 19.1827 5.01476 21.3905C7.02952 23.5982 9.54243 24.7922 12.5535 24.9725V27ZM25.572 26.1214L21.1218 21.5932C20.6568 21.9312 20.1531 22.1902 19.6107 22.3705C19.0683 22.5507 18.5092 22.6408 17.9336 22.6408C16.3616 22.6408 15.0277 22.0832 13.9317 20.9681C12.8358 19.8529 12.2878 18.4956 12.2878 16.8961C12.2878 15.2966 12.8358 13.9393 13.9317 12.8242C15.0277 11.709 16.3616 11.1514 17.9336 11.1514C19.5055 11.1514 20.8395 11.709 21.9354 12.8242C23.0314 13.9393 23.5793 15.2966 23.5793 16.8961C23.5793 17.4819 23.4852 18.0507 23.297 18.6026C23.1089 19.1546 22.8598 19.6783 22.5498 20.174L27 24.6683L25.572 26.1214ZM17.9336 20.6133C18.952 20.6133 19.8155 20.2528 20.524 19.5319C21.2325 18.811 21.5867 17.9324 21.5867 16.8961C21.5867 15.8598 21.2325 14.9812 20.524 14.2603C19.8155 13.5394 18.952 13.179 17.9336 13.179C16.9151 13.179 16.0517 13.5394 15.3432 14.2603C14.6347 14.9812 14.2804 15.8598 14.2804 16.8961C14.2804 17.9324 14.6347 18.811 15.3432 19.5319C16.0517 20.2528 16.9151 20.6133 17.9336 20.6133Z" fill="#919191"/>
</svg>
