<svg width="215" height="96" viewBox="0 0 215 96" fill="none" xmlns="http://www.w3.org/2000/svg">
<path d="M1.60898 47.5972C1.60898 47.3287 1.63133 46.9035 1.67602 46.3217C1.72072 45.7399 1.74306 45.4042 1.74306 45.3147C2.63694 41.6895 3.37439 38.579 3.95541 35.9832C4.58112 33.3874 5.0951 31.1944 5.49735 29.4042C5.89959 27.614 6.21245 26.1818 6.43592 25.1077C6.65939 24.0336 6.81582 23.2056 6.90521 22.6238C6.9946 21.9972 7.03929 21.572 7.03929 21.3483C7.08398 21.0797 7.10633 20.8783 7.10633 20.7441C7.10633 20.4755 7.10633 20.0056 7.10633 19.3343C7.15102 18.6629 7.12868 17.9916 7.03929 17.3203C6.9499 16.6042 6.77113 16 6.50296 15.5077C6.27949 14.9706 5.87725 14.7021 5.29623 14.7021C4.71521 14.7021 4.22357 14.9035 3.82133 15.3063C3.46378 15.6643 3.10623 16.0448 2.74867 16.4476C2.39112 16.8056 1.98888 17.1189 1.54194 17.3874C1.13969 17.6559 0.625715 17.6783 0 17.4545C0.625715 15.5748 1.40786 14.2322 2.34643 13.4266C3.3297 12.621 4.7599 12.2182 6.63704 12.2182C7.75439 12.2182 8.58123 12.442 9.11756 12.8895C9.69858 13.2923 10.0785 13.8517 10.2573 14.5678C10.4807 15.2392 10.5925 16.0224 10.5925 16.9175C10.5925 17.8126 10.5925 18.7301 10.5925 19.6699C10.5925 21.3706 10.436 23.049 10.1232 24.7049C9.85501 26.3608 9.54215 28.0168 9.1846 29.6727C8.82705 31.3287 8.49184 32.9846 8.17898 34.6406C7.91082 36.2965 7.77674 37.9748 7.77674 39.6755C7.77674 39.765 7.77674 39.9888 7.77674 40.3469C7.82143 40.6601 7.84378 40.8615 7.84378 40.9511L8.71531 40.0783C12.3802 34.842 15.3077 30.5902 17.4977 27.3231C19.7324 24.0559 21.4978 21.5049 22.7939 19.6699C24.09 17.7902 25.0956 16.5147 25.8107 15.8434C26.5258 15.172 27.1962 14.8364 27.822 14.8364C28.403 14.8364 28.8499 14.993 29.1628 15.3063C29.5203 15.6196 29.7885 16 29.9673 16.4476C30.146 16.8951 30.2578 17.3874 30.3025 17.9245C30.3919 18.4168 30.4365 18.8643 30.4365 19.2671V40.0783H31.3081L54.7053 4.43077C55.9121 2.64056 57.1635 1.47692 58.4596 0.93986C59.7557 0.358042 61.4094 0.358042 63.4206 0.93986L56.5154 7.92168C52.7611 13.6951 49.5879 18.7077 46.9956 22.9594C44.4481 27.1664 42.3028 30.7692 40.5597 33.7678C38.8613 36.7217 37.4758 39.1385 36.4032 41.0182C35.3752 42.8531 34.5037 44.3077 33.7886 45.3818C33.0735 46.4112 32.4478 47.1273 31.9114 47.5301C31.3751 47.8881 30.7494 48.0671 30.0343 48.0671C28.8276 48.0671 27.9337 47.6867 27.3527 46.9259C26.8163 46.165 26.4364 45.2699 26.213 44.2406C26.0342 43.1664 25.9448 42.0699 25.9448 40.9511C25.9895 39.8322 26.0118 38.9147 26.0118 38.1986C26.0118 36.5874 26.0118 35.1329 26.0118 33.835C26.0565 32.4923 26.1012 31.172 26.1459 29.8741C26.2353 28.5762 26.3247 27.2336 26.4141 25.8462C26.5482 24.414 26.727 22.7804 26.9504 20.9455C22.928 27.0769 19.6206 32.0448 17.0284 35.849C14.4808 39.6531 12.4026 42.607 10.7936 44.7105C9.1846 46.814 7.91082 48.2462 6.97225 49.007C6.07837 49.7231 5.25153 50.0811 4.49174 50.0811C3.285 50.0811 2.50286 49.9021 2.14531 49.5441C1.78776 49.1413 1.60898 48.4923 1.60898 47.5972Z" fill="black"/>
<path d="M46.5264 47.0601C46.9286 44.5091 47.6884 42.1594 48.8057 40.0112C49.9231 37.8629 51.1969 36.0056 52.6271 34.4392C54.102 32.828 55.6886 31.5077 57.387 30.4783C59.0853 29.449 60.739 28.8 62.348 28.5315C63.957 28.2182 65.4319 28.2853 66.7727 28.7329C68.1582 29.1804 69.2755 30.0755 70.1247 31.4182C70.1247 32.4476 69.8789 33.4322 69.3873 34.372C68.9403 35.3119 68.4264 36.2517 67.8453 37.1916C67.309 38.1315 66.795 39.0937 66.3034 40.0783C65.8565 41.0629 65.633 42.1147 65.633 43.2336C65.633 44.3972 65.8788 45.3371 66.3704 46.0531C66.9068 46.7245 67.823 47.0601 69.1191 47.0601C70.1918 47.0601 71.2197 46.9035 72.203 46.5902C73.231 46.2769 74.2589 46.1203 75.2869 46.1203C75.4657 46.1203 75.7562 46.1427 76.1584 46.1874C76.6053 46.1874 76.8959 46.1874 77.0299 46.1874C76.4936 46.9483 75.8009 47.5972 74.9517 48.1343C74.1025 48.6713 73.2086 49.1413 72.27 49.5441C71.3315 49.9021 70.3482 50.1706 69.3202 50.3497C68.337 50.5287 67.4207 50.6182 66.5716 50.6182C65.7671 50.6182 65.052 50.4392 64.4263 50.0811C63.8005 49.7231 63.2642 49.2531 62.8173 48.6713C62.3703 48.0895 62.0128 47.4406 61.7446 46.7245C61.5212 45.9636 61.4094 45.2252 61.4094 44.5091C60.739 45.2699 60.0016 46.0755 59.1971 46.9259C58.4373 47.7315 57.6104 48.4699 56.7166 49.1413C55.8674 49.8126 54.9288 50.372 53.9008 50.8196C52.9176 51.2671 51.8896 51.4909 50.817 51.4909C49.6549 51.4909 48.6493 51.0657 47.8001 50.2154C46.9509 49.3203 46.5264 48.2685 46.5264 47.0601ZM50.951 44.979C50.951 45.3371 50.951 45.7399 50.951 46.1874C50.9957 46.635 51.2863 46.9259 51.8226 47.0601C52.9399 46.7916 54.2137 46.2098 55.6439 45.3147C57.0741 44.3748 58.4149 43.3007 59.6664 42.0923C60.9178 40.8392 61.9681 39.5189 62.8173 38.1315C63.6665 36.6993 64.0911 35.3343 64.0911 34.0364C64.0911 33.9469 64.0687 33.8126 64.024 33.6336C64.024 33.4098 64.024 33.2531 64.024 33.1636C62.5044 33.1636 60.9625 33.4769 59.3982 34.1035C57.8339 34.7301 56.426 35.6028 55.1746 36.7217C53.9232 37.7958 52.8952 39.049 52.0907 40.4811C51.3309 41.9133 50.951 43.4126 50.951 44.979Z" fill="black"/>
<path d="M62.4821 87.0713C62.4821 84.5203 62.929 82.2378 63.8229 80.2238C64.6721 78.2098 65.8118 76.3301 67.242 74.5846C68.6722 72.8839 70.3035 71.2951 72.136 69.8182C73.9684 68.386 75.8455 66.9762 77.7674 65.5888C79.6892 64.2462 81.5664 62.8811 83.3988 61.4937C85.2313 60.1063 86.8626 58.6294 88.2928 57.0629C89.723 55.4965 90.8627 53.7958 91.7119 51.9608C92.6058 50.1259 93.0527 48.0895 93.0527 45.8518C93.0527 45.7622 93.0527 45.5608 93.0527 45.2476C93.0527 44.8895 93.0304 44.6657 92.9857 44.5762C92.6728 44.8448 92.0694 45.2476 91.1756 45.7846C90.2817 46.2769 89.3208 46.814 88.2928 47.3958C87.3095 47.9329 86.3486 48.4252 85.41 48.8727C84.4715 49.3203 83.8011 49.6112 83.3988 49.7455C83.3541 49.7455 83.1753 49.7678 82.8625 49.8126C82.5943 49.8573 82.2591 49.9021 81.8569 49.9469C81.4993 49.9916 81.1418 50.0364 80.7842 50.0811C80.4267 50.0811 80.1362 50.0811 79.9127 50.0811C77.9015 49.7231 76.5607 49.0294 75.8902 48C75.2198 46.9259 75.0411 45.6727 75.3539 44.2406C75.6668 42.8084 76.3595 41.2867 77.4322 39.6755C78.5495 38.0196 79.868 36.4531 81.3876 34.9762C82.9519 33.4545 84.6279 32.1119 86.4157 30.9483C88.2481 29.7399 90.0135 28.8895 91.7119 28.3972C93.4549 27.8601 95.0416 27.7483 96.4718 28.0615C97.9467 28.3301 99.0864 29.2028 99.8909 30.6797C100.159 32.5594 100.159 34.3273 99.8909 35.9832C99.6227 37.5944 99.2652 39.1832 98.8182 40.7497C98.3713 42.3161 97.9243 43.9049 97.4774 45.5161C97.0305 47.0825 96.7623 48.8056 96.6729 50.6853H97.2763C97.5444 50.4168 97.9914 49.9469 98.6171 49.2755C99.2875 48.6042 99.9803 47.9105 100.695 47.1944C101.455 46.4336 102.17 45.7399 102.841 45.1133C103.511 44.442 103.98 43.972 104.249 43.7035C104.383 43.5692 104.651 43.3902 105.053 43.1664C105.5 42.9427 105.813 42.8308 105.992 42.8308V43.0322V43.1664C105.992 43.2112 106.014 43.2336 106.059 43.2336C106.059 44.8448 105.589 46.3217 104.651 47.6643C103.757 49.007 102.662 50.2601 101.366 51.4238C100.07 52.5874 98.7288 53.6615 97.3433 54.6462C95.9578 55.6755 94.7958 56.6601 93.8572 57.6C93.0974 59.1664 92.2706 61.1133 91.3767 63.4406C90.4828 65.8126 89.4995 68.3189 88.4269 70.9594C87.3542 73.6448 86.1475 76.3525 84.8067 79.0825C83.5106 81.8573 82.0357 84.4084 80.382 86.7357C78.773 89.0629 76.9852 91.0545 75.0187 92.7105C73.0522 94.4112 70.8622 95.5077 68.4487 96C67.2867 96 66.3257 95.7091 65.566 95.1273C64.7615 94.5455 64.1357 93.807 63.6888 92.9119C63.2419 92.0615 62.929 91.0993 62.7502 90.0252C62.5715 88.9958 62.4821 88.0112 62.4821 87.0713ZM66.0352 90.6965C66.3928 91.5469 66.8174 92.0615 67.309 92.2406C67.8006 92.4196 68.3593 92.5091 68.985 92.5091C70.1471 92.5091 71.4209 91.9049 72.8064 90.6965C74.1919 89.4881 75.5774 87.9217 76.9629 85.9972C78.3931 84.1175 79.7563 82.014 81.0524 79.6867C82.3485 77.3594 83.4882 75.0993 84.4715 72.9063C85.4994 70.7133 86.3039 68.6993 86.8849 66.8643C87.5107 65.0741 87.8235 63.7315 87.8235 62.8364C87.8235 62.7469 87.8012 62.5902 87.7565 62.3664C87.7565 62.1874 87.7565 62.0531 87.7565 61.9636C87.6224 62.0531 87.3095 62.1874 86.8179 62.3664C86.371 62.5902 86.1028 62.7469 86.0134 62.8364C84.1363 64.2238 82.0133 65.7455 79.6445 67.4014C77.3204 69.1021 75.1528 70.9594 73.1416 72.9734C71.0856 74.9874 69.3649 77.158 67.9794 79.4853C66.5939 81.8573 65.9012 84.4084 65.9012 87.1385C65.9012 87.2727 65.9012 87.5189 65.9012 87.8769C65.9012 88.235 65.9235 88.593 65.9682 88.9511C65.9682 89.3091 65.9905 89.6448 66.0352 89.958C66.0352 90.3161 66.0352 90.5622 66.0352 90.6965ZM95.6003 31.4853C94.8852 31.4853 93.9466 31.7315 92.7845 32.2238C91.6225 32.6713 90.3711 33.2979 89.0302 34.1035C87.7341 34.9091 86.4157 35.8266 85.0748 36.8559C83.734 37.8853 82.5049 38.9594 81.3876 40.0783C80.3149 41.1972 79.4434 42.3161 78.773 43.435C78.1026 44.5538 77.7674 45.5832 77.7674 46.5231C78.706 46.5231 79.8457 46.3441 81.1865 45.986C82.5273 45.5832 83.9128 45.0685 85.343 44.442C86.8179 43.7706 88.2705 43.0098 89.7007 42.1594C91.1309 41.2643 92.4046 40.3245 93.522 39.3399C94.684 38.3552 95.6226 37.3483 96.3377 36.3189C97.0528 35.2895 97.4104 34.2825 97.4104 33.2979C97.4104 32.0895 96.807 31.4853 95.6003 31.4853Z" fill="black"/>
<path d="M104.919 44.9119C104.919 43.614 105.165 42.3161 105.656 41.0182C106.148 39.7203 106.729 38.4448 107.399 37.1916C108.07 35.8937 108.74 34.6182 109.411 33.365C110.126 32.1119 110.662 30.8811 111.02 29.6727C110.17 30.165 109.433 30.4559 108.807 30.5455C108.226 30.5902 107.511 30.6126 106.662 30.6126C106.573 30.6126 106.282 30.6126 105.79 30.6126C105.344 30.5678 105.053 30.5455 104.919 30.5455C105.187 29.5608 105.679 28.6881 106.394 27.9273C107.109 27.1217 107.913 26.4504 108.807 25.9133C109.746 25.3315 110.707 24.8615 111.69 24.5035C112.718 24.1007 113.634 23.7874 114.439 23.5636C115.78 21.4601 116.875 19.3566 117.724 17.2531C118.573 15.1049 119.422 13.0238 120.271 11.0098C121.165 8.95105 122.193 7.0042 123.355 5.16923C124.562 3.28951 126.171 1.56643 128.182 0L128.517 2.55105L120.137 22.221C120.629 22.0867 121.232 21.9524 121.947 21.8182C122.662 21.6839 123.378 21.5497 124.093 21.4154C124.852 21.2811 125.568 21.1692 126.238 21.0797C126.953 20.9455 127.556 20.8112 128.048 20.6769C128.093 20.6769 128.227 20.6769 128.45 20.6769C128.674 20.6322 128.853 20.6098 128.987 20.6098C129.612 20.6098 130.126 20.7217 130.529 20.9455C130.931 21.1692 131.266 21.6615 131.534 22.4224C128.495 23.3175 125.746 24.2573 123.288 25.242C120.83 26.2266 118.685 27.5245 116.852 29.1357C115.064 30.7021 113.59 32.7161 112.428 35.1776C111.31 37.5944 110.528 40.7049 110.081 44.5091C110.081 45.3147 110.126 46.0531 110.215 46.7245C110.305 47.3958 110.863 47.7986 111.891 47.9329C112.919 47.9329 113.88 47.7315 114.774 47.3287C115.668 46.9259 116.539 46.5007 117.389 46.0531C118.238 45.5608 119.087 45.1133 119.936 44.7105C120.83 44.3077 121.791 44.1063 122.819 44.1063C122.819 45.1804 122.35 46.165 121.411 47.0601C120.472 47.9552 119.333 48.7385 117.992 49.4098C116.696 50.0811 115.355 50.5958 113.969 50.9538C112.584 51.3119 111.444 51.4909 110.55 51.4909C109.656 51.4909 108.852 51.3119 108.137 50.9538C107.422 50.5958 106.818 50.1259 106.327 49.5441C105.88 48.9175 105.522 48.2014 105.254 47.3958C105.031 46.5902 104.919 45.7622 104.919 44.9119Z" fill="black"/>
<path d="M123.422 47.0601C123.824 44.5091 124.584 42.1594 125.702 40.0112C126.819 37.8629 128.093 36.0056 129.523 34.4392C130.998 32.828 132.584 31.5077 134.283 30.4783C135.981 29.449 137.635 28.8 139.244 28.5315C140.853 28.2182 142.328 28.2853 143.669 28.7329C145.054 29.1804 146.171 30.0755 147.021 31.4182C147.021 32.4476 146.775 33.4322 146.283 34.372C145.836 35.3119 145.322 36.2517 144.741 37.1916C144.205 38.1315 143.691 39.0937 143.199 40.0783C142.752 41.0629 142.529 42.1147 142.529 43.2336C142.529 44.3972 142.775 45.3371 143.266 46.0531C143.803 46.7245 144.719 47.0601 146.015 47.0601C147.088 47.0601 148.116 46.9035 149.099 46.5902C150.127 46.2769 151.155 46.1203 152.183 46.1203C152.362 46.1203 152.652 46.1427 153.054 46.1874C153.501 46.1874 153.792 46.1874 153.926 46.1874C153.389 46.9483 152.697 47.5972 151.848 48.1343C150.998 48.6713 150.104 49.1413 149.166 49.5441C148.227 49.9021 147.244 50.1706 146.216 50.3497C145.233 50.5287 144.317 50.6182 143.467 50.6182C142.663 50.6182 141.948 50.4392 141.322 50.0811C140.696 49.7231 140.16 49.2531 139.713 48.6713C139.266 48.0895 138.909 47.4406 138.64 46.7245C138.417 45.9636 138.305 45.2252 138.305 44.5091C137.635 45.2699 136.897 46.0755 136.093 46.9259C135.333 47.7315 134.506 48.4699 133.612 49.1413C132.763 49.8126 131.825 50.372 130.797 50.8196C129.813 51.2671 128.785 51.4909 127.713 51.4909C126.551 51.4909 125.545 51.0657 124.696 50.2154C123.847 49.3203 123.422 48.2685 123.422 47.0601ZM127.847 44.979C127.847 45.3371 127.847 45.7399 127.847 46.1874C127.892 46.635 128.182 46.9259 128.718 47.0601C129.836 46.7916 131.11 46.2098 132.54 45.3147C133.97 44.3748 135.311 43.3007 136.562 42.0923C137.814 40.8392 138.864 39.5189 139.713 38.1315C140.562 36.6993 140.987 35.3343 140.987 34.0364C140.987 33.9469 140.965 33.8126 140.92 33.6336C140.92 33.4098 140.92 33.2531 140.92 33.1636C139.4 33.1636 137.858 33.4769 136.294 34.1035C134.73 34.7301 133.322 35.6028 132.07 36.7217C130.819 37.7958 129.791 39.049 128.987 40.4811C128.227 41.9133 127.847 43.4126 127.847 44.979Z" fill="black"/>
<path d="M151.512 47.0601C151.512 46.4336 151.579 45.8965 151.713 45.449C151.848 44.9566 152.093 44.3301 152.451 43.5692C152.764 43.1217 153.322 42.2713 154.127 41.0182C154.976 39.765 155.848 38.4448 156.742 37.0573C157.68 35.6699 158.552 34.372 159.356 33.1636C160.205 31.9105 160.786 31.0378 161.099 30.5455C161.501 29.9636 161.814 29.6504 162.038 29.6056C162.261 29.5608 162.686 29.5385 163.312 29.5385C163.714 29.5385 164.138 29.5608 164.585 29.6056C165.077 29.6504 165.39 29.9636 165.524 30.5455C164.898 32.0671 164.049 33.5217 162.976 34.9091C161.948 36.2517 160.92 37.5944 159.892 38.9371C158.909 40.2797 158.038 41.6671 157.278 43.0993C156.518 44.4867 156.138 45.986 156.138 47.5972C156.317 47.5972 156.585 47.6196 156.943 47.6643C157.345 47.7091 157.769 47.7538 158.216 47.7986C158.663 47.8434 159.066 47.8881 159.423 47.9329C159.825 47.9776 160.116 47.9776 160.295 47.9329C160.563 47.8881 161.01 47.7986 161.635 47.6643C162.306 47.4853 162.999 47.3063 163.714 47.1273C164.474 46.9483 165.189 46.7692 165.859 46.5902C166.529 46.4112 166.999 46.2769 167.267 46.1874C167.267 46.2769 167.267 46.4336 167.267 46.6573C167.312 46.8364 167.334 46.9706 167.334 47.0601C167.334 47.9552 166.909 48.6937 166.06 49.2755C165.256 49.8573 164.295 50.3273 163.177 50.6853C162.105 50.9986 160.987 51.2224 159.825 51.3566C158.708 51.4462 157.837 51.4909 157.211 51.4909C156.54 51.4909 155.848 51.4238 155.133 51.2895C154.462 51.1105 153.859 50.842 153.322 50.4839C152.786 50.1259 152.339 49.6783 151.982 49.1413C151.669 48.5594 151.512 47.8657 151.512 47.0601ZM171.021 7.72028C171.602 7.72028 172.139 7.74266 172.63 7.78741C173.122 7.83217 173.546 7.94406 173.904 8.12308C174.262 8.3021 174.552 8.57063 174.775 8.92867C174.999 9.28671 175.111 9.77902 175.111 10.4056C175.111 10.6741 175.111 10.965 175.111 11.2783C175.111 11.5916 175.066 11.9049 174.977 12.2182C174.932 12.4867 174.82 12.7329 174.641 12.9566C174.463 13.1357 174.172 13.2252 173.77 13.2252C173.144 13.2252 172.63 13.0014 172.228 12.5538C171.87 12.1063 171.602 11.5916 171.423 11.0098C171.245 10.3832 171.133 9.75664 171.088 9.13007C171.044 8.5035 171.021 8.03357 171.021 7.72028Z" fill="black"/>
<path d="M167.468 45.3147C167.468 45.0014 167.49 44.5315 167.535 43.9049C167.624 43.2336 167.714 42.5846 167.803 41.958C167.893 41.3315 167.982 40.772 168.071 40.2797C168.161 39.7427 168.25 39.407 168.34 39.2727L180.541 14.8364C180.72 14.4783 181.055 13.986 181.547 13.3594C182.083 12.6881 182.642 12.0168 183.223 11.3455C183.848 10.6294 184.452 9.98042 185.033 9.3986C185.658 8.77203 186.172 8.27972 186.575 7.92168C186.888 8.01119 187.111 8.16783 187.245 8.39161C187.379 8.61538 187.469 8.88392 187.513 9.1972C187.558 9.46573 187.558 9.73427 187.513 10.0028C187.513 10.2713 187.513 10.4951 187.513 10.6741C187.513 10.8979 187.513 11.2112 187.513 11.614C187.513 12.0168 187.491 12.2182 187.446 12.2182C186.999 13.4266 186.307 14.8587 185.368 16.5147C184.429 18.1706 183.379 19.9385 182.217 21.8182C181.055 23.6979 179.848 25.6671 178.597 27.7259C177.39 29.7399 176.273 31.7538 175.245 33.7678C174.262 35.7371 173.435 37.6392 172.764 39.4741C172.139 41.3091 171.826 42.9874 171.826 44.5091C171.826 45.3147 172.049 45.9636 172.496 46.4559C172.988 46.9035 173.502 47.3063 174.038 47.6643C174.574 48.0224 175.066 48.3804 175.513 48.7385C176.005 49.0965 176.25 49.5888 176.25 50.2154C176.25 50.6182 176.072 50.9315 175.714 51.1552C175.357 51.3343 174.932 51.4238 174.44 51.4238C172.563 51.4238 170.932 50.9091 169.546 49.8797C168.161 48.8056 167.468 47.2839 167.468 45.3147Z" fill="black"/>
<path d="M184.966 43.972C184.966 43.1217 185.077 42.3832 185.301 41.7566C185.569 41.1301 186.217 40.8168 187.245 40.8168C187.334 40.8168 187.536 40.8392 187.848 40.8839C188.206 40.8839 188.452 40.9063 188.586 40.9511C188.541 43.0545 188.876 44.6434 189.592 45.7175C190.307 46.7469 191.647 47.2615 193.614 47.2615C195.223 47.2615 196.81 47.0154 198.374 46.5231C199.938 46.0308 201.346 45.3147 202.597 44.3748C203.894 43.3902 204.922 42.2042 205.681 40.8168C206.486 39.4294 206.888 37.8629 206.888 36.1175C206.888 35.0434 206.508 34.2825 205.748 33.835C205.033 33.3874 204.229 33.0294 203.335 32.7608C202.441 32.4923 201.614 32.2014 200.854 31.8881C200.139 31.5301 199.782 30.9259 199.782 30.0755C199.782 29.0462 200.407 28.0615 201.659 27.1217C202.91 26.1818 204.385 25.3538 206.084 24.6378C207.782 23.8769 209.458 23.2951 211.112 22.8923C212.81 22.4448 214.106 22.221 215 22.221C215 23.5189 214.709 24.4364 214.128 24.9734C213.592 25.5105 212.922 25.9357 212.117 26.249C211.313 26.5622 210.486 26.8755 209.637 27.1888C208.832 27.4573 208.162 27.9944 207.626 28.8C208.341 29.3818 208.922 29.9189 209.369 30.4112C209.86 30.8587 210.24 31.3511 210.508 31.8881C210.776 32.4252 210.955 33.0294 211.045 33.7007C211.134 34.3273 211.179 35.0881 211.179 35.9832C211.179 38.3105 210.665 40.4364 209.637 42.3608C208.653 44.2406 207.357 45.8741 205.748 47.2615C204.139 48.6042 202.307 49.6559 200.251 50.4168C198.195 51.1329 196.094 51.4909 193.949 51.4909C192.787 51.4909 191.647 51.3566 190.53 51.0881C189.457 50.7748 188.497 50.3049 187.647 49.6783C186.843 49.0518 186.195 48.2685 185.703 47.3287C185.212 46.3888 184.966 45.2699 184.966 43.972Z" fill="black"/>
</svg>
